HIERARCHY
ROOT Hips
{
	OFFSET -72.282547 91.867981 178.233994
	CHANNELS 6 Xposition Yposition Zposition Zrotation Yrotation Xrotation 
	JOINT LeftUpLeg
	{
		OFFSET 0.103457 1.857823 10.548503
		CHANNELS 3 Zrotation Yrotation Xrotation
		JOINT LeftLeg
		{
			OFFSET 43.499996 -0.000034 0.000002
			CHANNELS 3 Zrotation Yrotation Xrotation
			JOINT LeftFoot
			{
				OFFSET 42.372192 0.000011 -0.000001
				CHANNELS 3 Zrotation Yrotation Xrotation
				JOINT LeftToe
				{
					OFFSET 17.300007 0.000003 0.000000
					CHANNELS 3 Zrotation Yrotation Xrotation
					End Site
					{
						OFFSET 0.000000 0.000000 0.000000
					}
				}
			}
		}
	}
	JOINT RightUpLeg
	{
		OFFSET 0.103457 1.857824 -10.548503
		CHANNELS 3 Zrotation Yrotation Xrotation
		JOINT RightLeg
		{
			OFFSET 43.500046 -0.000027 0.000015
			CHANNELS 3 Zrotation Yrotation Xrotation
			JOINT RightFoot
			{
				OFFSET 42.372261 0.000004 0.000017
				CHANNELS 3 Zrotation Yrotation Xrotation
				JOINT RightToe
				{
					OFFSET 17.299995 -0.000004 -0.000002
					CHANNELS 3 Zrotation Yrotation Xrotation
					End Site
					{
						OFFSET 0.000000 0.000000 0.000000
					}
				}
			}
		}
	}
	JOINT Spine
	{
		OFFSET 6.901969 -2.603723 -0.000001
		CHANNELS 3 Zrotation Yrotation Xrotation
		JOINT Spine1
		{
			OFFSET 12.588095 -0.000003 0.000006
			CHANNELS 3 Zrotation Yrotation Xrotation
			JOINT Spine2
			{
				OFFSET 12.343204 0.000006 -0.000008
				CHANNELS 3 Zrotation Yrotation Xrotation
				JOINT Neck
				{
					OFFSET 25.832893 -0.000006 0.000003
					CHANNELS 3 Zrotation Yrotation Xrotation
					JOINT Head
					{
						OFFSET 11.766609 -0.000008 0.000000
						CHANNELS 3 Zrotation Yrotation Xrotation
						End Site
						{
							OFFSET 0.000000 0.000000 0.000000
						}
					}
				}
				JOINT LeftShoulder
				{
					OFFSET 19.745899 -1.480379 6.000108
					CHANNELS 3 Zrotation Yrotation Xrotation
					JOINT LeftArm
					{
						OFFSET 11.284125 -0.000006 -0.000023
						CHANNELS 3 Zrotation Yrotation Xrotation
						JOINT LeftForeArm
						{
							OFFSET 33.000050 -0.000002 0.000027
							CHANNELS 3 Zrotation Yrotation Xrotation
							JOINT LeftHand
							{
								OFFSET 25.200008 0.000014 0.000008
								CHANNELS 3 Zrotation Yrotation Xrotation
								End Site
								{
									OFFSET 0.000000 0.000000 0.000000
								}
							}
						}
					}
				}
				JOINT RightShoulder
				{
					OFFSET 19.746098 -1.480379 -6.000071
					CHANNELS 3 Zrotation Yrotation Xrotation
					JOINT RightArm
					{
						OFFSET 11.284139 -0.000009 -0.000009
						CHANNELS 3 Zrotation Yrotation Xrotation
						JOINT RightForeArm
						{
							OFFSET 33.000092 0.000008 0.000008
							CHANNELS 3 Zrotation Yrotation Xrotation
							JOINT RightHand
							{
								OFFSET 25.199780 0.000137 0.000422
								CHANNELS 3 Zrotation Yrotation Xrotation
								End Site
								{
									OFFSET 0.000000 0.000000 0.000000
								}
							}
						}
					}
				}
			}
		}
	}
}
MOTION
Frames: 7
Frame Time: 0.033333
-72.282547 91.867981 -178.233994 88.764025 -5.198798 -88.670431 -176.257417 -0.511502 -179.762793 -18.607582 -3.550383 -15.24279 83.906702 9.200591 -7.943821 21.45456 0.003093 1.6e-05 -172.612964 4.215106 -166.649922 -16.376924 2.259202 1.330348 86.850486 -0.614914 2.024194 21.454555 -0.003094 0.0 6.630072 -0.333539 0.206261 3.212831 -0.693707 0.381496 2.89473 -0.691521 0.38569 3.13291 3.457833 3.126274 -10.58185 -2.941051 4.925398 42.346128 -85.319308 136.100289 0.43974 10.794541 -30.77882 -28.701852 -20.432311 1.58182 17.351081 4.504973 13.347457 -81.699328 79.292588 101.076951 -7.781197 -2.237818 24.57965 -24.97237 19.17362 -1.419196 15.90827 -4.757253 -5.884189 
-72.292068 91.865784 -178.219498 88.76742 -5.212824 -88.682384 -176.249685 -0.506003 -179.789908 -18.607565 -3.542792 -15.235802 83.9172 9.200569 -7.931221 21.454557 0.003107 1.9e-05 -172.612951 4.221399 -166.643106 -16.384131 2.255871 1.317195 86.856053 -0.605004 2.028215 21.454553 -0.003091 -0.0 6.630071 -0.333536 0.206264 3.215914 -0.693702 0.38568 2.897804 -0.691518 0.389867 3.125857 3.455229 3.124227 -10.587828 -2.934754 4.921143 42.453034 -85.319349 135.994312 0.452235 10.782029 -30.76335 -28.721567 -20.435141 1.581822 17.368193 4.495199 13.333937 -81.644345 79.288046 101.132746 -7.805899 -2.222052 24.55751 -24.966104 19.211674 -1.419183 15.909117 -4.820488 -5.929617 
-72.31102 91.861069 -178.187103 88.77774 -5.24446 -88.705265 -176.236188 -0.497299 -179.843198 -18.613592 -3.525827 -15.222087 83.940532 9.200584 -7.904008 21.45456 0.003094 1.6e-05 -172.612951 4.229593 -166.623585 -16.40329 2.244438 1.286656 86.866954 -0.581764 2.038536 21.454553 -0.003096 -1e-06 6.63008 -0.333539 0.206247 3.223193 -0.689937 0.393112 2.90508 -0.687676 0.397256 3.11261 3.435231 3.116978 -10.604428 -2.901475 4.89961 42.681828 -85.319267 135.767495 0.478871 10.754431 -30.727587 -28.763863 -20.445432 1.581827 17.391661 4.481005 13.311313 -81.549672 79.279597 101.228806 -7.869102 -2.17258 24.505809 -24.943494 19.255155 -1.419197 15.95874 -4.872191 -5.797762 
-72.328758 91.857391 -178.150101 88.790533 -5.271809 -88.715551 -176.237445 -0.490907 -179.873483 -18.629922 -3.509625 -15.214559 83.961664 9.200576 -7.877563 21.454558 0.003103 1.7e-05 -172.618169 4.232196 -166.620648 -16.419338 2.238756 1.271879 86.871926 -0.569185 2.050118 21.454553 -0.003099 -1e-06 6.630076 -0.333541 0.206254 3.229963 -0.684168 0.397023 2.911847 -0.681913 0.40114 3.109928 3.419382 3.11127 -10.63544 -2.871602 4.881954 42.743249 -85.319349 135.706679 0.480432 10.736642 -30.705754 -28.792625 -20.460047 1.581809 17.367305 4.487358 13.316421 -81.530916 79.278409 101.247726 -7.926846 -2.120238 24.481927 -24.901843 19.234294 -1.419185 15.9302 -4.78979 -5.63812 
-72.3507 91.854713 -178.109207 88.800594 -5.299617 -88.726152 -176.23806 -0.4758 -179.88508 -18.639588 -3.493724 -15.219118 83.977873 9.20923 -7.850045 21.454558 0.003102 1.6e-05 -172.623346 4.242802 -166.628776 -16.43216 2.241572 1.261959 86.87278 -0.560213 2.060935 21.454555 -0.003108 -1e-06 6.630076 -0.333532 0.206258 3.237616 -0.678264 0.403186 2.919502 -0.675962 0.407266 3.114495 3.427046 3.119592 -10.67774 -2.874344 4.894532 42.713343 -85.321275 135.736322 0.466957 10.72205 -30.709111 -28.824672 -20.456014 1.581823 17.333931 4.484155 13.339423 -81.599744 79.284576 101.177887 -7.976376 -2.084766 24.562605 -24.913993 19.205983 -1.419197 15.905181 -4.739378 -5.661745 
-72.378311 91.852928 -178.063004 88.805484 -5.32811 -88.742681 -176.234385 -0.4494 -179.878236 -18.634984 -3.481946 -15.238712 83.988446 9.22895 -7.819499 21.454562 0.003102 1.5e-05 -172.629275 4.266404 -166.633257 -16.441283 2.249559 1.24577 86.870785 -0.547406 2.069216 21.454553 -0.003092 -1e-06 6.630068 -0.333531 0.211112 3.246145 -0.67272 0.412945 2.928034 -0.670353 0.416997 3.106917 3.470247 3.151853 -10.712083 -2.930548 4.956519 42.533668 -85.335994 135.913975 0.42984 10.7082 -30.726135 -28.863498 -20.435357 1.58261 17.306871 4.466087 13.358582 -81.684821 79.298401 101.09098 -8.015928 -2.084738 24.683242 -24.972522 19.192664 -1.419193 15.891827 -4.743412 -5.837828 
-72.410637 91.853157 -178.011398 88.810539 -5.354132 -88.776012 -176.223279 -0.420205 -179.85877 -18.605983 -3.481853 -15.275214 83.993329 9.261646 -7.783659 21.454557 0.003102 1.8e-05 -172.629261 4.297607 -166.61099 -16.423764 2.258141 1.205017 86.856251 -0.518862 2.069767 21.454553 -0.00309 0.0 6.633427 -0.329559 0.220107 3.252798 -0.665024 0.431 2.934687 -0.662538 0.434999 3.081374 3.534736 3.20778 -10.73318 -3.034307 5.062259 42.271416 -85.361177 136.173372 0.374191 10.695631 -30.735544 -28.90296 -20.409662 1.583324 17.29288 4.436335 13.344487 -81.770383 79.321869 101.002549 -8.045077 -2.111494 24.712714 -25.030178 19.213916 -1.419172 15.879469 -4.748327 -5.927468 
